<?xml version="1.0" encoding="UTF-8" standalone="no"?>
<!-- Created with Inkscape (http://www.inkscape.org/) -->

<svg
   version="1.1"
   id="svg1"
   width="1024"
   height="1024"
   viewBox="0 0 1024 1024"
   xmlns="http://www.w3.org/2000/svg"
   xmlns:svg="http://www.w3.org/2000/svg">
  <defs
     id="defs1" />
  <path
     style="display:inline;fill:none;stroke:#4c372b;stroke-width:34.4128;stroke-linecap:round;stroke-linejoin:round;stroke-dasharray:none"
     d="m 529.47956,95.852044 36.48983,53.692206"
     id="path4" />
  <path
     style="display:inline;fill:none;stroke:#4c372b;stroke-width:34.4128;stroke-linecap:round;stroke-linejoin:round;stroke-dasharray:none"
     id="path3"
     d="M 558.64458,236.65608 A 173.58737,164.72557 0 0 1 756.82526,177.5793 173.58737,164.72557 0 0 1 872.79592,341.12392" />
  <path
     style="display:inline;fill:none;stroke:#4c372b;stroke-width:34.4128;stroke-linecap:round;stroke-linejoin:round;stroke-dasharray:none"
     d="m 698.89669,42.681142 0.52126,68.288128"
     id="path5" />
  <path
     style="display:inline;fill:none;stroke:#4c372b;stroke-width:34.4128;stroke-linecap:round;stroke-linejoin:round;stroke-dasharray:none"
     d="M 866.22866,93.766914 830.78139,146.93784"
     id="path6" />
  <path
     style="display:inline;fill:none;stroke:#4c372b;stroke-width:34.4128;stroke-linecap:round;stroke-linejoin:round;stroke-dasharray:none"
     d="m 480.91203,414.74224 232.21994,396.6169"
     id="path8" />
  <path
     style="display:inline;fill:none;stroke:#4c372b;stroke-width:34.4128;stroke-linecap:round;stroke-linejoin:round;stroke-dasharray:none"
     d="m 965.27251,217.83238 -57.86246,25.54288"
     id="path7" />
  <path
     style="display:inline;fill:none;stroke:#4c372b;stroke-width:34.4128;stroke-linecap:round;stroke-linejoin:round;stroke-dasharray:none"
     d="M 537.6769,414.00503 306.19418,809.14751"
     id="path9" />
  <rect
     style="display:inline;fill:none;stroke:#4c372b;stroke-width:34.4128;stroke-linecap:round;stroke-linejoin:round;stroke-dasharray:none"
     id="rect9"
     width="68.288132"
     height="113.63982"
     x="474.74481"
     y="698.45575"
     ry="0" />
  <path
     style="fill:none;stroke:#4c372b;stroke-width:34.4128;stroke-linecap:round;stroke-linejoin:round;stroke-dasharray:none"
     d="M 75.233968,390.06361 394.25943,187.80563 579.83635,311.8711"
     id="path1" />
  <path
     style="fill:none;stroke:#4c372b;stroke-width:34.4128;stroke-linecap:round;stroke-linejoin:round;stroke-dasharray:none"
     d="M 956.93198,458.14405 660.84298,270.48201 514.88362,355.9725"
     id="path2" />
  <path
     id="path11-8"
     style="display:inline;fill:none;stroke:#4c372b;stroke-width:34.4128;stroke-linecap:round;stroke-linejoin:round;stroke-dasharray:none"
     d="M 198.80684,745.01057 H 47.67958 L 151.99425,640.69591 H 62.055102 L 156.60178,546.14923 H 91.543339 L 200.28124,409.58178" />
  <path
     id="path11-8-2"
     style="display:inline;fill:none;stroke:#4c372b;stroke-width:34.4128;stroke-linecap:round;stroke-linejoin:round;stroke-dasharray:none"
     d="m 717.36701,720.67082 59.3827,-59.38276 h -89.93915 l 94.54668,-94.54669 H 716.2988 L 825.0367,430.17394" />
  <path
     id="path27"
     style="display:inline;fill:none;stroke:#4c372b;stroke-width:34.4128;stroke-linecap:round;stroke-linejoin:round;stroke-dasharray:none"
     d="M 823.56229,765.60272 H 743.67355" />
  <path
     id="path11-8-2-2"
     style="display:inline;fill:none;stroke:#4c372b;stroke-width:34.4128;stroke-linecap:round;stroke-linejoin:round;stroke-dasharray:none"
     d="M 826.4911,765.60475 H 977.61837 L 873.3037,661.29009 h 89.93914 l -94.54668,-94.54668 h 65.05845 L 825.01671,430.17597" />
  <path
     id="path23"
     style="display:inline;fill:none;stroke:#4c372b;stroke-width:34.4128;stroke-linecap:round;stroke-linejoin:round;stroke-dasharray:none"
     d="m 313.4599,705.12184 -64.50435,-64.50435 h 89.93912 l -94.54666,-94.54667 h 65.05843 L 200.66856,409.50337" />
  <path
     id="path21"
     style="display:inline;fill:none;stroke:#4c372b;stroke-width:34.4128;stroke-linecap:round;stroke-linejoin:round;stroke-dasharray:none"
     d="m 202.14295,744.93216 h 87.99456" />
  <path
     style="fill:none;stroke:#4c372b;stroke-width:34.4128;stroke-linecap:round;stroke-linejoin:round;stroke-dasharray:none"
     d="M 48.856225,848.06407 C 329.30671,810.53166 568.05453,907.49039 568.05453,907.49039"
     id="path24" />
  <path
     style="fill:none;stroke:#4c372b;stroke-width:34.4128;stroke-linecap:round;stroke-linejoin:round;stroke-dasharray:none"
     d="M 965.27251,857.44716 C 801.58952,817.82961 612.8849,882.46879 612.8849,882.46879"
     id="path25" />
  <path
     style="fill:none;stroke:#4c372b;stroke-width:34.4128;stroke-linecap:round;stroke-linejoin:round;stroke-dasharray:none"
     d="m 102.02712,933.76632 c 268.98227,-87.57564 405.05776,60.96641 530.66654,10.42566 184.86473,-74.38334 304.42956,-23.97902 304.42956,-23.97902"
     id="path26" />
</svg>
